# xmcd
#
# Track frame offsets:
#	150
#	8430
#	21734
#	40859
#	57734
#	72083
#	73983
#	90383
#	106320
#	120007
#	135076
#	137676
#	151276
#	167534
#	183211
#	199307
#	211907
#	219107
#	238579
#	255030
#	261727
#
# Disc length: 3737 seconds
#
# Revision: 1
# Processed by: cddbd v1.5.2PL0 Copyright (c) Steve Scherf et al.
# Submitted via: audiograbber 1.83.01
#
DISCID=1a0e9715
DTITLE=Huge L - Rapinkulta
DYEAR=2012
DGENRE=Rap
TTITLE0=Lehdistön Keltaiset Sivut
TTITLE1=Timanttista Paskaa
TTITLE2=Joo Joo
TTITLE3=Hummo Kiisko
TTITLE4=Mahtavuutta
TTITLE5=Tyhjiä Sivuja (Skit)
TTITLE6=Kysynpähän
TTITLE7=Ämmät Hei
TTITLE8=Puistomusaa
TTITLE9=Jumis (Next Episode)
TTITLE10=Koulutus Hantti Hommiin (Skit)
TTITLE11=Vitun Hippi
TTITLE12=Et Oo Ghetto
TTITLE13=Tililtä Tilille
TTITLE14=Mikitän Siitä
TTITLE15=Tuhannen Euron Velka
TTITLE16=Roiskeläppä
TTITLE17=Kuu-Ulvonta
TTITLE18=Tietäni Pitkin
TTITLE19=Krapula Ja Viina (Skit)
TTITLE20=Suomalainen Mies
EXTD=
EXTT0=
EXTT1=
EXTT2=
EXTT3=
EXTT4=
EXTT5=
EXTT6=
EXTT7=
EXTT8=
EXTT9=
EXTT10=
EXTT11=
EXTT12=
EXTT13=
EXTT14=
EXTT15=
EXTT16=
EXTT17=
EXTT18=
EXTT19=
EXTT20=
PLAYORDER=
